<svg class="icon" viewBox="0 0 1024 1024" xmlns="http://www.w3.org/2000/svg" width="200" height="200"><defs><style/></defs><path d="M779.837 749.592s-18.756-69.683-86.128-69.683H339.057c-67.373 0-86.129 69.683-86.129 69.683l-87.5 209.005h701.909l-87.5-209.005zm-271.694-87.071c150.33 0 272.224-124.76 272.22-278.644 0-153.883-121.893-278.644-272.22-278.644s-272.22 124.76-272.22 278.644 121.89 278.644 272.22 278.644zm-44.67-481.529C432.08 335.565 610.635 294.106 716.977 383.874c0 118.036-93.494 213.76-208.834 213.76s-208.835-95.724-208.835-213.76c182.88-63.645 80.736-172.387 164.165-202.882z" fill="#fff"/></svg>