<svg class="icon" viewBox="0 0 1024 1024" xmlns="http://www.w3.org/2000/svg" width="200" height="200"><defs><style/></defs><path d="M93.238 401.485l111.95-115.057c6.22-5.181 11.401-17.619 11.401-25.913v-75.67h1.036c0-8.292-7.255-15.545-15.55-15.545H97.385c-8.289 0-15.546 7.252-15.546 15.545v211.457c0 8.29 5.181 10.364 11.4 5.183m924.593 155.48L529.628 58.388c-10.366-9.33-26.955-9.33-36.283 0L6.17 556.965c-10.364 9.328-7.257 16.584 6.223 16.584h118.164V951.89c0 11.403 9.33 20.72 20.73 20.72h67.378c11.4 0 20.73-9.316 20.73-20.72V769.459c0-11.404 9.33-20.736 20.73-20.736H385.54c11.406 0 20.736 9.332 20.736 20.736V951.89c0 11.403 9.326 20.72 20.73 20.72h441.558c11.404 0 20.73-9.316 20.73-20.72V573.549h122.317c13.472 0 16.581-7.256 6.22-16.584M803.273 796.406c0 11.399-9.332 20.729-20.732 20.729H598.04c-11.408 0-21.773-9.329-21.773-20.729V667.878c0-11.408 9.332-20.732 21.773-20.732h184.502c11.4 0 20.732 9.324 20.732 20.732v128.528z" fill="#fff"/></svg>